<svg xmlns="http://www.w3.org/2000/svg" viewBox="0 0 640 512">
  <g transform="scale(10.666,6.826)">
    <path d="M52,54a3,3,0,0,0,0-6H8a3,3,0,0,0,0,6Z" fill="#ffffff"/>
    <polygon points="2 56 2 58 58 58 58 56 52 56 8 56 2 56" fill="#ffffff"/>
    <path d="M52,24H8a3,3,0,0,0,0,6H52a3,3,0,0,0,0-6Z" fill="#ffffff"/>
    <path d="M8,32a3,3,0,0,0,0,6H52a3,3,0,0,0,0-6Z" fill="#ffffff"/>
    <path d="M52,46a3,3,0,0,0,0-6H8a3,3,0,0,0,0,6Z" fill="#ffffff"/>
    <path d="M31,22V10.812a5.975,5.975,0,0,1,.309-1.9l.485-1.46A3.987,3.987,0,0,0,32,6.188V4a2,2,0,0,0-4,0V6.188a4,4,0,0,0,.2,1.265l.487,1.461a5.993,5.993,0,0,1,.308,1.9V22Z" fill="#ffffff"/>
  </g>
</svg>
